<svg id="FP-EN" xmlns="http://www.w3.org/2000/svg" viewBox="0 0 90.72 18.19"><defs><style>.cls-1{fill:#231815;}.cls-2{fill:#0066cb;}</style></defs><title>画板 3</title><g id="图层_1-2" data-name="图层 1-2"><path class="cls-1" d="M16.19,6.84a5.66,5.66,0,1,0,5.65,5.66,5.66,5.66,0,0,0-5.65-5.66Zm0,9a3.29,3.29,0,1,1,3.28-3.3h0A3.28,3.28,0,0,1,16.19,15.79Z"/><path class="cls-1" d="M73.33,7.63V6.86H71V7.92a5.65,5.65,0,1,0,0,9.19,1.19,1.19,0,0,0,1.18,1.06h1.18V7.63Zm-5.66,8.16A3.29,3.29,0,1,1,71,12.49h0A3.29,3.29,0,0,1,67.67,15.79Z"/><path class="cls-1" d="M48.47,11.56l-3.25,3.25h0a3.29,3.29,0,0,1-3.85.53l5.92-5.93h0l.25-.25a5.66,5.66,0,1,0,.93,2.4Zm-7.9-1.39A3.33,3.33,0,0,1,44,9.4l-4.17,4.17A3.29,3.29,0,0,1,40.57,10.17Z"/><path class="cls-1" d="M34,9.25a5.37,5.37,0,0,0-1.54-1.5,5.25,5.25,0,0,0-5.79,0V7.11a.27.27,0,0,0-.26-.27H24.6a.27.27,0,0,0-.26.27h0V17a1.18,1.18,0,0,0,1.19,1.18h1.18v-6a2.9,2.9,0,0,1,5.79,0V17a1.18,1.18,0,0,0,1.18,1.18h1.19v-6A5.28,5.28,0,0,0,34,9.25Z"/><path class="cls-1" d="M90.72,13.83V8a1.2,1.2,0,0,0-1.19-1.18H88.35v6.94h0a2,2,0,1,1-4,0h0V8a1.2,1.2,0,0,0-1.15-1.18H82.06v6.94a2,2,0,0,1-4,.25V8a1.18,1.18,0,0,0-1.19-1.18H75.7v7a4.32,4.32,0,0,0,.47,2,4.26,4.26,0,0,0,1.35,1.54,3.48,3.48,0,0,0,.55.33,4.24,4.24,0,0,0,4,0,2.77,2.77,0,0,0,.55-.33h1.28a3,3,0,0,0,.54.33,4.26,4.26,0,0,0,4,0,3,3,0,0,0,.54-.33,4.38,4.38,0,0,0,1.36-1.54,4.29,4.29,0,0,0,.47-2v2h0v-2Z"/><path class="cls-2" d="M78.07,1.71v.66a1.18,1.18,0,0,0-1.19,1.18h1.19V5.92H75.7V4.08A2.37,2.37,0,0,1,78.07,1.71Z"/><path class="cls-2" d="M88.35,1.71v.66a1.18,1.18,0,0,1,1.18,1.18H88.35V5.92h2.37V4.08A2.37,2.37,0,0,0,88.35,1.71Z"/><path class="cls-2" d="M82,1.8v.66A1.18,1.18,0,0,1,83.24,3.6v0H82.06V6h2.36V4.17A2.35,2.35,0,0,0,82.06,1.8Z"/><path class="cls-1" d="M10,0H5.13A5.13,5.13,0,0,0,0,5.13H0V17a1.18,1.18,0,0,0,1.19,1.18H2.37V11.21H7.89a.26.26,0,0,0,.26-.27h0V9.13a.26.26,0,0,0-.26-.27H2.37V5.13h0A2.77,2.77,0,0,1,5.13,2.37H10a.27.27,0,0,0,.27-.27V.26A.27.27,0,0,0,10,0Z"/><path class="cls-1" d="M62.2,5.13V5a.76.76,0,0,0-.05-.33,1.6,1.6,0,0,0,0-.21L62,4.15,62,3.91a.14.14,0,0,0,0-.13c-.08-.21-.16-.42-.26-.62V3.09c0-.11-.12-.22-.18-.33V2.7a2.7,2.7,0,0,0-.22-.33h0l-.15-.06h0c-.1-.13-.21-.26-.32-.38l-.09-.1-.26-.27-.11-.09L60,1.23l-.09-.07-.08-.07L59.53.88,59.47.77c-.12,0-.21-.09-.33-.15l-.07,0a4.66,4.66,0,0,0-.61-.26l-.14,0L58.08.21,57.81.14h-.22L57.28.05H57.1a2.35,2.35,0,0,0-.53,0,2.26,2.26,0,0,0-.52,0h-.18L55.54.1h-.21l-.27.07-.24.07-.14,0a5.42,5.42,0,0,0-.6.26L54,.59l-.32.18-.07,0L53.28,1h0c-.14.1-.27.2-.41.32l-.11.1a3.19,3.19,0,0,0-.26.26l-.09.16-.24.29a.54.54,0,0,0-.09.12L52,2.37l-.21.32,0,.07-.18.32,0,.08a4.6,4.6,0,0,0-.25.61l-.06.14a1.05,1.05,0,0,1-.06.24l-.07.26L51,4.62l0,.32V17a1.18,1.18,0,0,0,1.18,1.18h1.19V11.31h4l.32-.05.21-.08.27-.07.23-.07.15-.06a6.32,6.32,0,0,0,.6-.25l.07,0a2.68,2.68,0,0,0,.33-.18l.07,0,.33-.22.07-.06.1-.07.29-.25a.52.52,0,0,0,.11-.1c.09-.07.17-.17.26-.25l.09-.1c.11-.12.22-.26.32-.39h0l0-.08h0l.22-.33,0-.06a2.68,2.68,0,0,0,.18-.33V8.15a4.35,4.35,0,0,0,.25-.59.39.39,0,0,1,.06-.15L62,7.17a2.4,2.4,0,0,0,.11-.23,1.6,1.6,0,0,0,.05-.21.76.76,0,0,1,0-.33.54.54,0,0,0,0-.18V5.7A5.43,5.43,0,0,0,62.2,5.13ZM53.28,9V5.65A3.29,3.29,0,1,1,56.57,9Z"/></g></svg>