<svg xmlns="http://www.w3.org/2000/svg" width="32" height="32" viewBox="0 0 24 24"><path d="M11.664 2.004c-5.043.168-9.289 4.246-9.64 9.285-.368 5.328 3.445 9.832 8.484 10.59v-7.23H8.89a1.31 1.31 0 01-1.313-1.313 1.31 1.31 0 011.313-1.313h1.613v-1.75c0-2.894 1.41-4.168 3.82-4.168.356 0 .66.008.918.024a1.188 1.188 0 011.13 1.195c0 .664-.536 1.2-1.2 1.2h-.442c-1.02 0-1.378.968-1.378 2.062v1.437h1.87c.59 0 1.044.528.954 1.11l-.11.703a.966.966 0 01-.953.816h-1.761v7.246C18.234 21.234 22 17.063 22 12c0-5.633-4.66-10.18-10.336-9.996zm0 0" fill="#fff"/></svg>