<svg xmlns="http://www.w3.org/2000/svg" width="32" height="32" viewBox="0 0 24 24"><path d="M20.305 2.984c-.29.012-.555.094-.79.188-.214.086-.988.41-2.218.926-1.23.515-2.863 1.199-4.598 1.933-3.476 1.461-7.386 3.106-9.386 3.95-.07.027-.348.113-.657.347-.308.235-.652.75-.652 1.309 0 .453.226.914.5 1.175.27.262.547.387.777.481.676.266 2.762 1.102 3.668 1.46.317.954 1.063 3.196 1.239 3.747.14.45.277.742.472.988.094.121.207.235.352.32.05.036.113.06.172.087.007 0 .015.003.027.007l-.024-.007a.636.636 0 00.051.023c.028.012.047.008.086.02.137.039.274.066.403.066.543 0 .875-.293.875-.293l.023-.016 2.348-1.988 2.875 2.66c.05.074.46.63 1.414.63.566 0 1.02-.278 1.308-.575.285-.293.465-.594.547-1.004v-.008c.055-.289 2.817-14.144 2.817-14.144l-.008.023c.086-.383.11-.754.012-1.129a1.625 1.625 0 00-.704-.937 1.684 1.684 0 00-.93-.239zm-.399 2.188c-.105.547-2.562 12.887-2.722 13.707l-2.856-2.64a2.014 2.014 0 00-2.648-.06l-1.457 1.235.777-3.039s5.363-5.43 5.688-5.746c.257-.25.312-.34.312-.43 0-.113-.059-.199-.2-.199-.124 0-.292.121-.382.176-1.152.715-6.066 3.52-8.45 4.87-.09-.05-.175-.105-.273-.144-.785-.316-2.285-.918-3.164-1.265 2.074-.875 5.63-2.371 8.942-3.766l4.597-1.93c1.04-.433 1.578-.66 1.84-.77zm-2.754 13.851h.004c-.004 0-.004.008-.004.008v-.008zm0 0" fill="#fff"/></svg>