<svg xmlns="http://www.w3.org/2000/svg" width="32" height="32" viewBox="0 0 24 24"><path d="M6.672 2a.61.61 0 00-.59.77l1.266 4.574v1.922c0 .355.285.64.64.64.356 0 .64-.285.64-.64V7.344L9.91 2.77A.605.605 0 009.324 2c-.281 0-.531.2-.594.477L8.3 4.43a29.6 29.6 0 00-.292 1.515h-.04a22.342 22.342 0 00-.288-1.523L7.262 2.48A.603.603 0 006.668 2zm4.95 2.016c-.434 0-.786.086-1.052.261-.265.172-.46.446-.586.82-.125.38-.187.88-.187 1.5v.84c0 .614.05 1.11.164 1.477.11.371.293.645.555.824.261.176.62.262 1.078.262.445 0 .8-.086 1.062-.258.258-.176.446-.445.563-.82.117-.375.176-.867.176-1.485v-.84c0-.62-.063-1.117-.18-1.492-.117-.37-.309-.648-.567-.824-.257-.176-.601-.261-1.027-.261zm3.097.113a.654.654 0 00-.653.652v3.664c0 .535.094.926.278 1.18.18.25.46.375.847.375.551 0 .965-.27 1.243-.8h.03l.036.245a.55.55 0 00.543.461.547.547 0 00.547-.55V4.776a.65.65 0 00-1.297 0V8.72a.619.619 0 01-.23.261.584.584 0 01-.329.106.296.296 0 01-.28-.164c-.06-.11-.087-.293-.087-.555V4.781a.65.65 0 00-.648-.652zm-3.125.781c.183 0 .312.098.383.29.07.19.109.495.109.91v1.8c0 .426-.04.735-.11.922-.07.188-.199.281-.378.285-.184 0-.309-.097-.38-.285-.07-.187-.105-.496-.105-.922v-1.8c0-.415.04-.72.11-.91.07-.192.195-.29.37-.29zM5 11c-1.102 0-2 .898-2 2v7c0 1.102.898 2 2 2h14c1.102 0 2-.898 2-2v-7c0-1.102-.898-2-2-2zm7.574 2c.293 0 .531.238.531.531v2.04h.008c.094-.188.23-.337.407-.45a.995.995 0 01.566-.172c.262 0 .465.07.613.207.145.137.254.36.32.668.067.309.098.735.098 1.281v.774h.004c0 .726-.09 1.258-.266 1.601-.175.34-.449.512-.816.512a1.16 1.16 0 01-.566-.14.944.944 0 01-.383-.391h-.024l-.015.07a.506.506 0 01-1-.117v-5.883c0-.293.234-.531.527-.531zm-6.644.25h2.367a.44.44 0 110 .883h-.649v5.254a.533.533 0 01-.535.531c-.3 0-.539-.238-.539-.535v-5.254H5.93a.44.44 0 110-.883zm11.164 1.703c.379 0 .668.067.87.207.2.137.34.352.423.645.082.289.125.691.125 1.207v.281h.004c0 .309-.25.555-.555.555h-1.285v.246c0 .316.012.55.031.703.016.156.055.273.113.344.059.07.149.109.27.109.164 0 .277-.066.34-.191.023-.059.047-.133.062-.227a.465.465 0 01.492-.383.474.474 0 01.442.559c-.059.277-.16.515-.313.656-.25.223-.597.332-1.047.332-.543 0-.921-.172-1.136-.508-.22-.34-.328-.863-.328-1.574v-.852c0-.734.113-1.269.34-1.605.222-.336.609-.504 1.156-.504zm-8.133.09c.305 0 .547.246.547.55v3.032c0 .219.023.371.074.465.047.094.125.14.238.14a.486.486 0 00.274-.09.534.534 0 00.195-.222v-3.324a.55.55 0 111.098 0v3.863a.463.463 0 01-.922.074l-.031-.207h-.024c-.234.45-.586.676-1.05.676-.325 0-.563-.105-.715-.316-.157-.215-.235-.547-.235-.997v-3.093c0-.305.246-.547.55-.547zm8.113.648a.332.332 0 00-.262.106c-.054.07-.09.183-.109.336-.02.156-.027.394-.027.71v.352h.8v-.351a5.51 5.51 0 00-.03-.711c-.02-.16-.06-.274-.114-.34-.055-.066-.14-.102-.258-.102zm-3.48.04c-.11 0-.203.039-.293.124a.662.662 0 00-.192.329v2.765a.485.485 0 00.438.254.34.34 0 00.277-.125c.067-.086.117-.226.149-.43.027-.199.043-.48.043-.835v-.625c0-.383-.012-.68-.036-.887-.027-.203-.07-.356-.128-.442a.301.301 0 00-.258-.129zm0 0" fill="#fff"/></svg>