<?xml version="1.0" standalone="no"?>
<!DOCTYPE svg PUBLIC "-//W3C//DTD SVG 20010904//EN"
 "http://www.w3.org/TR/2001/REC-SVG-20010904/DTD/svg10.dtd">
<svg version="1.0" xmlns="http://www.w3.org/2000/svg"
 width="700.000000pt" height="700.000000pt" viewBox="0 0 700.000000 700.000000"
 preserveAspectRatio="xMidYMid meet">
<metadata>
Created by potrace 1.11, written by Peter Selinger 2001-2013
</metadata>
<g transform="translate(0.000000,700.000000) scale(0.100000,-0.100000)"
fill="#000000" stroke="none">
<path d="M3407 6984 c-1 -1 -54 -5 -117 -8 -63 -4 -131 -9 -150 -11 -19 -3
-57 -7 -85 -10 -264 -29 -681 -140 -902 -241 -28 -13 -55 -24 -58 -24 -13 0
-284 -139 -360 -185 -156 -94 -388 -256 -460 -322 -11 -10 -50 -43 -85 -74
-262 -228 -509 -527 -708 -859 -86 -143 -214 -421 -280 -610 -56 -156 -133
-459 -147 -574 -5 -45 -14 -104 -20 -137 -26 -136 -27 -734 -1 -864 2 -12 7
-48 11 -80 4 -33 11 -76 15 -95 5 -19 11 -51 14 -70 10 -62 16 -88 46 -206
131 -507 381 -985 728 -1393 99 -116 335 -346 458 -444 94 -76 395 -287 409
-287 3 0 24 -12 47 -26 133 -84 457 -228 658 -292 168 -53 243 -73 365 -98
135 -27 151 -29 220 -39 22 -2 56 -7 75 -10 185 -26 693 -27 838 -1 19 4 89
14 142 21 19 3 46 7 60 10 14 3 41 8 60 11 76 13 342 85 455 124 501 173 940
447 1320 825 184 183 277 292 412 485 282 406 489 901 567 1360 2 14 9 52 15
85 10 62 16 105 29 235 10 100 9 536 -1 630 -5 41 -10 93 -12 115 -4 37 -38
238 -49 295 -93 447 -294 904 -573 1297 -512 723 -1275 1217 -2158 1399 -116
23 -114 23 -169 29 -28 3 -64 8 -81 10 -67 10 -111 14 -222 21 -109 6 -303 11
-306 8z"/>
</g>
</svg>
